<mxfile host="app.diagrams.net" modified="2024-07-05T10:11:15.891Z" agent="Mozilla/5.0 (Macintosh; Intel Mac OS X 10_15_7) AppleWebKit/537.36 (KHTML, like Gecko) Chrome/126.0.0.0 Safari/537.36" etag="TaBK4W_BxB8aM-egjQmr" version="24.6.4" type="device">
  <diagram name="Page-1" id="6HjLwXH_93NH_du4nIBY">
    <mxGraphModel dx="4834" dy="-280" grid="1" gridSize="10" guides="1" tooltips="1" connect="1" arrows="1" fold="1" page="1" pageScale="1" pageWidth="850" pageHeight="1100" math="0" shadow="0">
      <root>
        <mxCell id="0" />
        <mxCell id="1" parent="0" />
        <mxCell id="yFF6c2uj3MfdMwQBRJTj-1" value="&lt;font style=&quot;font-size: 36px;&quot;&gt;接口视角&lt;/font&gt;" style="text;html=1;align=center;verticalAlign=middle;resizable=0;points=[];autosize=1;strokeColor=none;fillColor=none;" vertex="1" parent="1">
          <mxGeometry x="-3270" y="1580" width="170" height="60" as="geometry" />
        </mxCell>
        <mxCell id="yFF6c2uj3MfdMwQBRJTj-137" style="edgeStyle=orthogonalEdgeStyle;rounded=0;orthogonalLoop=1;jettySize=auto;html=1;entryX=0;entryY=0.5;entryDx=0;entryDy=0;" edge="1" parent="1" source="yFF6c2uj3MfdMwQBRJTj-5" target="yFF6c2uj3MfdMwQBRJTj-136">
          <mxGeometry relative="1" as="geometry" />
        </mxCell>
        <mxCell id="yFF6c2uj3MfdMwQBRJTj-5" value="会员信息&lt;div&gt;/app-bff-api/auth/v2/user/detail&lt;br&gt;&lt;/div&gt;" style="rounded=1;whiteSpace=wrap;html=1;fillColor=#d5e8d4;strokeColor=#82b366;" vertex="1" parent="1">
          <mxGeometry x="-3280" y="2210" width="120" height="60" as="geometry" />
        </mxCell>
        <mxCell id="yFF6c2uj3MfdMwQBRJTj-105" value="" style="edgeStyle=orthogonalEdgeStyle;rounded=0;orthogonalLoop=1;jettySize=auto;html=1;entryX=0;entryY=0.5;entryDx=0;entryDy=0;" edge="1" parent="1" source="yFF6c2uj3MfdMwQBRJTj-107" target="yFF6c2uj3MfdMwQBRJTj-113">
          <mxGeometry relative="1" as="geometry">
            <mxPoint x="-2890" y="1730" as="targetPoint" />
          </mxGeometry>
        </mxCell>
        <mxCell id="yFF6c2uj3MfdMwQBRJTj-106" value="&lt;span style=&quot;color: rgba(0, 0, 0, 0); font-family: monospace; font-size: 0px; text-align: start; background-color: rgb(251, 251, 251);&quot;&gt;%3CmxGraphModel%3E%3Croot%3E%3CmxCell%20id%3D%220%22%2F%3E%3CmxCell%20id%3D%221%22%20parent%3D%220%22%2F%3E%3CmxCell%20id%3D%222%22%20value%3D%22post%26amp%3Bnbsp%3B%2Fmember%2FmemberInfo%2Fv1%2FqueryUsersAvatorAndNickname%22%20style%3D%22text%3Bhtml%3D1%3Balign%3Dcenter%3BverticalAlign%3Dmiddle%3Bresizable%3D0%3Bpoints%3D%5B%5D%3Bautosize%3D1%3BstrokeColor%3Dnone%3BfillColor%3Dnone%3B%22%20vertex%3D%221%22%20parent%3D%221%22%3E%3CmxGeometry%20x%3D%22-2048%22%20y%3D%221765%22%20width%3D%22350%22%20height%3D%2230%22%20as%3D%22geometry%22%2F%3E%3C%2FmxCell%3E%3C%2Froot%3E%3C%2FmxGraphModel%3E&lt;/span&gt;" style="edgeLabel;html=1;align=center;verticalAlign=middle;resizable=0;points=[];" vertex="1" connectable="0" parent="yFF6c2uj3MfdMwQBRJTj-105">
          <mxGeometry x="-0.2369" relative="1" as="geometry">
            <mxPoint as="offset" />
          </mxGeometry>
        </mxCell>
        <mxCell id="yFF6c2uj3MfdMwQBRJTj-107" value="&lt;span style=&quot;white-space: pre;&quot; data-slate-fragment=&quot;JTVCJTdCJTIydHlwZSUyMiUzQSUyMnBhcmFncmFwaCUyMiUyQyUyMmNoaWxkcmVuJTIyJTNBJTVCJTdCJTIyaWQlMjIlM0ElMjJ4ZUFYMWEybzVFJTIyJTJDJTIycGFyYUlkeCUyMiUzQTUlMkMlMjJzcmMlMjIlM0ElMjJzdGFyV29ybGRJY29uJTIyJTJDJTIyZHN0JTIyJTNBJTIyJUU2JTk4JTlGJUU1JUJEJUEyJUU0JUI4JTk2JUU3JTk1JThDJUU1JTlCJUJFJUU2JUEwJTg3JTIyJTJDJTIybWV0YWRhdGElMjIlM0ElMjIlMjIlMkMlMjJtZXRhRGF0YSUyMiUzQSU1QiU1RCUyQyUyMnRleHQlMjIlM0ElMjJzdGFyV29ybGRJY29uJTIyJTdEJTVEJTdEJTVE&quot;&gt;starPresent&lt;/span&gt;" style="whiteSpace=wrap;html=1;fillColor=#d5e8d4;strokeColor=#82b366;rounded=1;shadow=1;" vertex="1" parent="1">
          <mxGeometry x="-3070" y="1660" width="120" height="60" as="geometry" />
        </mxCell>
        <mxCell id="yFF6c2uj3MfdMwQBRJTj-110" value="" style="edgeStyle=orthogonalEdgeStyle;rounded=0;orthogonalLoop=1;jettySize=auto;html=1;entryX=0;entryY=0.5;entryDx=0;entryDy=0;" edge="1" parent="1" source="yFF6c2uj3MfdMwQBRJTj-111" target="yFF6c2uj3MfdMwQBRJTj-107">
          <mxGeometry relative="1" as="geometry" />
        </mxCell>
        <mxCell id="yFF6c2uj3MfdMwQBRJTj-111" value="登陆态首页聚合接口&lt;br&gt;/app-bff-api/auth/v2/home" style="rounded=1;whiteSpace=wrap;html=1;fillColor=#d5e8d4;strokeColor=#82b366;arcSize=0;shadow=1;" vertex="1" parent="1">
          <mxGeometry x="-3275" y="1780" width="95" height="60" as="geometry" />
        </mxCell>
        <mxCell id="yFF6c2uj3MfdMwQBRJTj-134" style="edgeStyle=orthogonalEdgeStyle;rounded=0;orthogonalLoop=1;jettySize=auto;html=1;entryX=0;entryY=0.5;entryDx=0;entryDy=0;" edge="1" parent="1" source="yFF6c2uj3MfdMwQBRJTj-112" target="yFF6c2uj3MfdMwQBRJTj-117">
          <mxGeometry relative="1" as="geometry" />
        </mxCell>
        <mxCell id="yFF6c2uj3MfdMwQBRJTj-112" value="&lt;span style=&quot;text-wrap: nowrap;&quot;&gt;post&amp;nbsp; &amp;nbsp;/asset-service/asset/v1/assets/online&lt;/span&gt;" style="rounded=1;whiteSpace=wrap;html=1;" vertex="1" parent="1">
          <mxGeometry x="-2635" y="1665" width="367.5" height="50" as="geometry" />
        </mxCell>
        <mxCell id="yFF6c2uj3MfdMwQBRJTj-115" value="" style="edgeStyle=orthogonalEdgeStyle;rounded=0;orthogonalLoop=1;jettySize=auto;html=1;" edge="1" parent="1" source="yFF6c2uj3MfdMwQBRJTj-113" target="yFF6c2uj3MfdMwQBRJTj-112">
          <mxGeometry relative="1" as="geometry" />
        </mxCell>
        <mxCell id="yFF6c2uj3MfdMwQBRJTj-113" value="&amp;nbsp;CAC Service" style="rounded=1;whiteSpace=wrap;html=1;fillColor=#e1d5e7;strokeColor=#9673a6;" vertex="1" parent="1">
          <mxGeometry x="-2815" y="1675" width="90" height="30" as="geometry" />
        </mxCell>
        <mxCell id="yFF6c2uj3MfdMwQBRJTj-117" value="OB 好礼/UPP券" style="rounded=1;whiteSpace=wrap;html=1;" vertex="1" parent="1">
          <mxGeometry x="-2150" y="1675" width="110" height="30" as="geometry" />
        </mxCell>
        <mxCell id="yFF6c2uj3MfdMwQBRJTj-130" style="edgeStyle=orthogonalEdgeStyle;rounded=0;orthogonalLoop=1;jettySize=auto;html=1;" edge="1" parent="1" source="yFF6c2uj3MfdMwQBRJTj-123" target="yFF6c2uj3MfdMwQBRJTj-129">
          <mxGeometry relative="1" as="geometry" />
        </mxCell>
        <mxCell id="yFF6c2uj3MfdMwQBRJTj-123" value="&amp;nbsp;CAC Service" style="rounded=1;whiteSpace=wrap;html=1;fillColor=#e1d5e7;strokeColor=#9673a6;" vertex="1" parent="1">
          <mxGeometry x="-2822" y="1795" width="90" height="30" as="geometry" />
        </mxCell>
        <mxCell id="yFF6c2uj3MfdMwQBRJTj-128" style="edgeStyle=orthogonalEdgeStyle;rounded=0;orthogonalLoop=1;jettySize=auto;html=1;" edge="1" parent="1" source="yFF6c2uj3MfdMwQBRJTj-125" target="yFF6c2uj3MfdMwQBRJTj-123">
          <mxGeometry relative="1" as="geometry" />
        </mxCell>
        <mxCell id="yFF6c2uj3MfdMwQBRJTj-125" value="&lt;span style=&quot;white-space: pre;&quot; data-slate-fragment=&quot;JTVCJTdCJTIydHlwZSUyMiUzQSUyMnBhcmFncmFwaCUyMiUyQyUyMmNoaWxkcmVuJTIyJTNBJTVCJTdCJTIyaWQlMjIlM0ElMjJOT0FWQlE4ZUE3JTIyJTJDJTIycGFyYUlkeCUyMiUzQTUlMkMlMjJzcmMlMjIlM0ElMjJmbG9hdGluZ0ljb24lMjIlMkMlMjJkc3QlMjIlM0ElMjIlRTYlQjUlQUUlRTUlOEElQTglRTUlOUIlQkUlRTYlQTAlODclMjIlMkMlMjJtZXRhZGF0YSUyMiUzQSUyMiUyMiUyQyUyMm1ldGFEYXRhJTIyJTNBJTVCJTVEJTJDJTIydGV4dCUyMiUzQSUyMmZsb2F0aW5nSWNvbiUyMiU3RCU1RCU3RCU1RA==&quot;&gt;floatingIcon&lt;/span&gt;" style="whiteSpace=wrap;html=1;fillColor=#d5e8d4;strokeColor=#82b366;rounded=1;shadow=1;" vertex="1" parent="1">
          <mxGeometry x="-3070" y="1780" width="120" height="60" as="geometry" />
        </mxCell>
        <mxCell id="yFF6c2uj3MfdMwQBRJTj-126" value="" style="endArrow=classic;html=1;rounded=0;exitX=1;exitY=0.5;exitDx=0;exitDy=0;entryX=0;entryY=0.5;entryDx=0;entryDy=0;" edge="1" parent="1" source="yFF6c2uj3MfdMwQBRJTj-111" target="yFF6c2uj3MfdMwQBRJTj-125">
          <mxGeometry width="50" height="50" relative="1" as="geometry">
            <mxPoint x="-3120" y="1860" as="sourcePoint" />
            <mxPoint x="-3060" y="1810" as="targetPoint" />
          </mxGeometry>
        </mxCell>
        <mxCell id="yFF6c2uj3MfdMwQBRJTj-132" style="edgeStyle=orthogonalEdgeStyle;rounded=0;orthogonalLoop=1;jettySize=auto;html=1;entryX=0;entryY=0.5;entryDx=0;entryDy=0;" edge="1" parent="1" source="yFF6c2uj3MfdMwQBRJTj-129" target="yFF6c2uj3MfdMwQBRJTj-131">
          <mxGeometry relative="1" as="geometry" />
        </mxCell>
        <mxCell id="yFF6c2uj3MfdMwQBRJTj-129" value="&lt;span style=&quot;text-wrap: nowrap;&quot;&gt;post&amp;nbsp;&amp;nbsp;/asset-service/asset/v2/equity/sub/list&lt;/span&gt;" style="rounded=1;whiteSpace=wrap;html=1;" vertex="1" parent="1">
          <mxGeometry x="-2635" y="1785" width="367.5" height="50" as="geometry" />
        </mxCell>
        <mxCell id="yFF6c2uj3MfdMwQBRJTj-131" value="OB 权益" style="rounded=1;whiteSpace=wrap;html=1;" vertex="1" parent="1">
          <mxGeometry x="-2160" y="1795" width="110" height="30" as="geometry" />
        </mxCell>
        <mxCell id="yFF6c2uj3MfdMwQBRJTj-133" value="&lt;font style=&quot;font-size: 18px;&quot;&gt;1:3&lt;/font&gt;" style="text;html=1;align=center;verticalAlign=middle;resizable=0;points=[];autosize=1;strokeColor=none;fillColor=none;" vertex="1" parent="1">
          <mxGeometry x="-2240" y="1770" width="50" height="40" as="geometry" />
        </mxCell>
        <mxCell id="yFF6c2uj3MfdMwQBRJTj-135" value="&lt;font style=&quot;font-size: 18px;&quot;&gt;1:3&lt;/font&gt;" style="text;html=1;align=center;verticalAlign=middle;resizable=0;points=[];autosize=1;strokeColor=none;fillColor=none;" vertex="1" parent="1">
          <mxGeometry x="-2240" y="1650" width="50" height="40" as="geometry" />
        </mxCell>
        <mxCell id="yFF6c2uj3MfdMwQBRJTj-139" style="edgeStyle=orthogonalEdgeStyle;rounded=0;orthogonalLoop=1;jettySize=auto;html=1;entryX=0;entryY=0.5;entryDx=0;entryDy=0;" edge="1" parent="1" source="yFF6c2uj3MfdMwQBRJTj-136" target="yFF6c2uj3MfdMwQBRJTj-138">
          <mxGeometry relative="1" as="geometry" />
        </mxCell>
        <mxCell id="yFF6c2uj3MfdMwQBRJTj-136" value="&amp;nbsp;CAC Service" style="rounded=1;whiteSpace=wrap;html=1;fillColor=#e1d5e7;strokeColor=#9673a6;" vertex="1" parent="1">
          <mxGeometry x="-3070" y="2210" width="120" height="60" as="geometry" />
        </mxCell>
        <mxCell id="yFF6c2uj3MfdMwQBRJTj-142" style="edgeStyle=orthogonalEdgeStyle;rounded=0;orthogonalLoop=1;jettySize=auto;html=1;entryX=0;entryY=0.5;entryDx=0;entryDy=0;" edge="1" parent="1" source="yFF6c2uj3MfdMwQBRJTj-138" target="yFF6c2uj3MfdMwQBRJTj-140">
          <mxGeometry relative="1" as="geometry" />
        </mxCell>
        <mxCell id="yFF6c2uj3MfdMwQBRJTj-138" value="&lt;span style=&quot;text-wrap: nowrap;&quot;&gt;post /asset-service/asset/v1/member/equity/detail&lt;/span&gt;" style="rounded=1;whiteSpace=wrap;html=1;" vertex="1" parent="1">
          <mxGeometry x="-2840" y="2215" width="367.5" height="50" as="geometry" />
        </mxCell>
        <mxCell id="yFF6c2uj3MfdMwQBRJTj-140" value="OB 权益" style="rounded=1;whiteSpace=wrap;html=1;" vertex="1" parent="1">
          <mxGeometry x="-2340" y="2225" width="110" height="30" as="geometry" />
        </mxCell>
        <mxCell id="yFF6c2uj3MfdMwQBRJTj-141" value="&lt;font style=&quot;font-size: 18px;&quot;&gt;1:1&lt;/font&gt;" style="text;html=1;align=center;verticalAlign=middle;resizable=0;points=[];autosize=1;strokeColor=none;fillColor=none;" vertex="1" parent="1">
          <mxGeometry x="-2430" y="2190" width="50" height="40" as="geometry" />
        </mxCell>
        <mxCell id="yFF6c2uj3MfdMwQBRJTj-143" value="&lt;b style=&quot;background-color: rgb(51, 51, 51);&quot;&gt;Smp Service&lt;/b&gt;" style="rounded=1;whiteSpace=wrap;html=1;fillColor=#66FFFF;strokeColor=#B20000;fontColor=#ffffff;" vertex="1" parent="1">
          <mxGeometry x="-3070" y="2325" width="120" height="60" as="geometry" />
        </mxCell>
        <mxCell id="yFF6c2uj3MfdMwQBRJTj-145" style="edgeStyle=orthogonalEdgeStyle;rounded=0;orthogonalLoop=1;jettySize=auto;html=1;exitX=1;exitY=0.5;exitDx=0;exitDy=0;entryX=0;entryY=0.5;entryDx=0;entryDy=0;" edge="1" parent="1" source="yFF6c2uj3MfdMwQBRJTj-143" target="yFF6c2uj3MfdMwQBRJTj-146">
          <mxGeometry relative="1" as="geometry">
            <mxPoint x="-2845.23" y="2349.25" as="targetPoint" />
          </mxGeometry>
        </mxCell>
        <mxCell id="yFF6c2uj3MfdMwQBRJTj-149" style="edgeStyle=orthogonalEdgeStyle;rounded=0;orthogonalLoop=1;jettySize=auto;html=1;entryX=0;entryY=0.5;entryDx=0;entryDy=0;" edge="1" parent="1" source="yFF6c2uj3MfdMwQBRJTj-146" target="yFF6c2uj3MfdMwQBRJTj-148">
          <mxGeometry relative="1" as="geometry" />
        </mxCell>
        <mxCell id="yFF6c2uj3MfdMwQBRJTj-146" value="&lt;span style=&quot;text-wrap: nowrap;&quot;&gt;post /member/v1/pendingexpired/stars&lt;/span&gt;" style="rounded=1;whiteSpace=wrap;html=1;" vertex="1" parent="1">
          <mxGeometry x="-2830" y="2330" width="367.5" height="50" as="geometry" />
        </mxCell>
        <mxCell id="yFF6c2uj3MfdMwQBRJTj-147" style="edgeStyle=orthogonalEdgeStyle;rounded=0;orthogonalLoop=1;jettySize=auto;html=1;entryX=0.008;entryY=0.617;entryDx=0;entryDy=0;entryPerimeter=0;" edge="1" parent="1" source="yFF6c2uj3MfdMwQBRJTj-5" target="yFF6c2uj3MfdMwQBRJTj-143">
          <mxGeometry relative="1" as="geometry" />
        </mxCell>
        <mxCell id="yFF6c2uj3MfdMwQBRJTj-148" value="OB 星星" style="rounded=1;whiteSpace=wrap;html=1;" vertex="1" parent="1">
          <mxGeometry x="-2330" y="2340" width="110" height="30" as="geometry" />
        </mxCell>
        <mxCell id="yFF6c2uj3MfdMwQBRJTj-150" value="&lt;font style=&quot;font-size: 18px;&quot;&gt;1:1&lt;/font&gt;" style="text;html=1;align=center;verticalAlign=middle;resizable=0;points=[];autosize=1;strokeColor=none;fillColor=none;" vertex="1" parent="1">
          <mxGeometry x="-2430" y="2310" width="50" height="40" as="geometry" />
        </mxCell>
      </root>
    </mxGraphModel>
  </diagram>
</mxfile>
